<?xml version="1.0" encoding="UTF-8"?>
<svg xmlns="http://www.w3.org/2000/svg" xmlns:xlink="http://www.w3.org/1999/xlink" width="4800" height="4800" viewBox="0 0 4800 4800">
<defs>
<clipPath id="clip-0">
<path clip-rule="evenodd" d="M 937.5 0 L 3862.5 0 C 4378.128906 0 4800 421.871094 4800 937.5 L 4800 3862.5 C 4800 4378.128906 4378.128906 4800 3862.5 4800 L 937.5 4800 C 421.875 4800 0 4378.128906 0 3862.5 L 0 937.5 C 0 421.871094 421.875 0 937.5 0 "/>
</clipPath>
<linearGradient id="linear-pattern-0" gradientUnits="userSpaceOnUse" x1="-0.194405" y1="0" x2="1.194528" y2="0" gradientTransform="matrix(3455.89, 3455.89, -3455.89, 3455.89, 671.843, 671.84)">
<stop offset="0" stop-color="rgb(75.68512%, 41.175842%, 66.665649%)" stop-opacity="1"/>
<stop offset="0.125" stop-color="rgb(75.68512%, 41.175842%, 66.665649%)" stop-opacity="1"/>
<stop offset="0.140625" stop-color="rgb(75.662231%, 41.172791%, 66.665649%)" stop-opacity="1"/>
<stop offset="0.144531" stop-color="rgb(75.378418%, 41.143799%, 66.662598%)" stop-opacity="1"/>
<stop offset="0.148438" stop-color="rgb(75.117493%, 41.116333%, 66.661072%)" stop-opacity="1"/>
<stop offset="0.152344" stop-color="rgb(74.855042%, 41.087341%, 66.65802%)" stop-opacity="1"/>
<stop offset="0.15625" stop-color="rgb(74.594116%, 41.059875%, 66.656494%)" stop-opacity="1"/>
<stop offset="0.160156" stop-color="rgb(74.331665%, 41.03241%, 66.654968%)" stop-opacity="1"/>
<stop offset="0.164062" stop-color="rgb(74.07074%, 41.004944%, 66.653442%)" stop-opacity="1"/>
<stop offset="0.167969" stop-color="rgb(73.808289%, 40.977478%, 66.650391%)" stop-opacity="1"/>
<stop offset="0.171875" stop-color="rgb(73.547363%, 40.950012%, 66.648865%)" stop-opacity="1"/>
<stop offset="0.175781" stop-color="rgb(73.284912%, 40.922546%, 66.645813%)" stop-opacity="1"/>
<stop offset="0.179688" stop-color="rgb(73.023987%, 40.895081%, 66.644287%)" stop-opacity="1"/>
<stop offset="0.183594" stop-color="rgb(72.761536%, 40.866089%, 66.641235%)" stop-opacity="1"/>
<stop offset="0.1875" stop-color="rgb(72.50061%, 40.838623%, 66.639709%)" stop-opacity="1"/>
<stop offset="0.191406" stop-color="rgb(72.238159%, 40.811157%, 66.636658%)" stop-opacity="1"/>
<stop offset="0.195312" stop-color="rgb(71.977234%, 40.783691%, 66.635132%)" stop-opacity="1"/>
<stop offset="0.199219" stop-color="rgb(71.714783%, 40.756226%, 66.633606%)" stop-opacity="1"/>
<stop offset="0.203125" stop-color="rgb(71.453857%, 40.72876%, 66.63208%)" stop-opacity="1"/>
<stop offset="0.207031" stop-color="rgb(71.191406%, 40.701294%, 66.629028%)" stop-opacity="1"/>
<stop offset="0.210938" stop-color="rgb(70.930481%, 40.673828%, 66.627502%)" stop-opacity="1"/>
<stop offset="0.214844" stop-color="rgb(70.66803%, 40.644836%, 66.624451%)" stop-opacity="1"/>
<stop offset="0.21875" stop-color="rgb(70.407104%, 40.617371%, 66.622925%)" stop-opacity="1"/>
<stop offset="0.222656" stop-color="rgb(70.144653%, 40.589905%, 66.619873%)" stop-opacity="1"/>
<stop offset="0.226563" stop-color="rgb(69.883728%, 40.562439%, 66.618347%)" stop-opacity="1"/>
<stop offset="0.230469" stop-color="rgb(69.621277%, 40.534973%, 66.615295%)" stop-opacity="1"/>
<stop offset="0.234375" stop-color="rgb(69.360352%, 40.507507%, 66.61377%)" stop-opacity="1"/>
<stop offset="0.238281" stop-color="rgb(69.0979%, 40.480042%, 66.612244%)" stop-opacity="1"/>
<stop offset="0.242188" stop-color="rgb(68.836975%, 40.452576%, 66.610718%)" stop-opacity="1"/>
<stop offset="0.246094" stop-color="rgb(68.574524%, 40.423584%, 66.607666%)" stop-opacity="1"/>
<stop offset="0.25" stop-color="rgb(68.313599%, 40.396118%, 66.60614%)" stop-opacity="1"/>
<stop offset="0.253906" stop-color="rgb(68.051147%, 40.368652%, 66.603088%)" stop-opacity="1"/>
<stop offset="0.257812" stop-color="rgb(67.790222%, 40.341187%, 66.601562%)" stop-opacity="1"/>
<stop offset="0.261719" stop-color="rgb(67.527771%, 40.313721%, 66.598511%)" stop-opacity="1"/>
<stop offset="0.265625" stop-color="rgb(67.266846%, 40.286255%, 66.596985%)" stop-opacity="1"/>
<stop offset="0.269531" stop-color="rgb(67.004395%, 40.258789%, 66.595459%)" stop-opacity="1"/>
<stop offset="0.273438" stop-color="rgb(66.743469%, 40.231323%, 66.593933%)" stop-opacity="1"/>
<stop offset="0.277344" stop-color="rgb(66.481018%, 40.202332%, 66.590881%)" stop-opacity="1"/>
<stop offset="0.28125" stop-color="rgb(66.220093%, 40.174866%, 66.589355%)" stop-opacity="1"/>
<stop offset="0.285156" stop-color="rgb(65.957642%, 40.1474%, 66.586304%)" stop-opacity="1"/>
<stop offset="0.289063" stop-color="rgb(65.696716%, 40.119934%, 66.584778%)" stop-opacity="1"/>
<stop offset="0.292969" stop-color="rgb(65.434265%, 40.092468%, 66.581726%)" stop-opacity="1"/>
<stop offset="0.296875" stop-color="rgb(65.17334%, 40.065002%, 66.5802%)" stop-opacity="1"/>
<stop offset="0.300781" stop-color="rgb(64.910889%, 40.037537%, 66.577148%)" stop-opacity="1"/>
<stop offset="0.304688" stop-color="rgb(64.649963%, 40.010071%, 66.575623%)" stop-opacity="1"/>
<stop offset="0.308594" stop-color="rgb(64.387512%, 39.981079%, 66.574097%)" stop-opacity="1"/>
<stop offset="0.3125" stop-color="rgb(64.126587%, 39.953613%, 66.572571%)" stop-opacity="1"/>
<stop offset="0.316406" stop-color="rgb(63.864136%, 39.926147%, 66.569519%)" stop-opacity="1"/>
<stop offset="0.320312" stop-color="rgb(63.60321%, 39.898682%, 66.567993%)" stop-opacity="1"/>
<stop offset="0.324219" stop-color="rgb(63.340759%, 39.871216%, 66.564941%)" stop-opacity="1"/>
<stop offset="0.328125" stop-color="rgb(63.079834%, 39.84375%, 66.563416%)" stop-opacity="1"/>
<stop offset="0.332031" stop-color="rgb(62.817383%, 39.816284%, 66.560364%)" stop-opacity="1"/>
<stop offset="0.335938" stop-color="rgb(62.556458%, 39.788818%, 66.558838%)" stop-opacity="1"/>
<stop offset="0.339844" stop-color="rgb(62.294006%, 39.759827%, 66.555786%)" stop-opacity="1"/>
<stop offset="0.34375" stop-color="rgb(62.033081%, 39.732361%, 66.55426%)" stop-opacity="1"/>
<stop offset="0.347656" stop-color="rgb(61.77063%, 39.704895%, 66.552734%)" stop-opacity="1"/>
<stop offset="0.351562" stop-color="rgb(61.509705%, 39.677429%, 66.551208%)" stop-opacity="1"/>
<stop offset="0.355469" stop-color="rgb(61.247253%, 39.649963%, 66.548157%)" stop-opacity="1"/>
<stop offset="0.359375" stop-color="rgb(60.986328%, 39.622498%, 66.546631%)" stop-opacity="1"/>
<stop offset="0.363281" stop-color="rgb(60.723877%, 39.595032%, 66.543579%)" stop-opacity="1"/>
<stop offset="0.367188" stop-color="rgb(60.462952%, 39.567566%, 66.542053%)" stop-opacity="1"/>
<stop offset="0.371094" stop-color="rgb(60.2005%, 39.538574%, 66.539001%)" stop-opacity="1"/>
<stop offset="0.375" stop-color="rgb(59.939575%, 39.511108%, 66.537476%)" stop-opacity="1"/>
<stop offset="0.378906" stop-color="rgb(59.677124%, 39.483643%, 66.534424%)" stop-opacity="1"/>
<stop offset="0.382813" stop-color="rgb(59.416199%, 39.456177%, 66.532898%)" stop-opacity="1"/>
<stop offset="0.386719" stop-color="rgb(59.153748%, 39.428711%, 66.531372%)" stop-opacity="1"/>
<stop offset="0.390625" stop-color="rgb(58.892822%, 39.401245%, 66.529846%)" stop-opacity="1"/>
<stop offset="0.394531" stop-color="rgb(58.630371%, 39.372253%, 66.526794%)" stop-opacity="1"/>
<stop offset="0.398438" stop-color="rgb(58.369446%, 39.344788%, 66.525269%)" stop-opacity="1"/>
<stop offset="0.402344" stop-color="rgb(58.106995%, 39.317322%, 66.522217%)" stop-opacity="1"/>
<stop offset="0.40625" stop-color="rgb(57.846069%, 39.289856%, 66.520691%)" stop-opacity="1"/>
<stop offset="0.410156" stop-color="rgb(57.583618%, 39.26239%, 66.517639%)" stop-opacity="1"/>
<stop offset="0.414063" stop-color="rgb(57.322693%, 39.234924%, 66.516113%)" stop-opacity="1"/>
<stop offset="0.417969" stop-color="rgb(57.060242%, 39.207458%, 66.514587%)" stop-opacity="1"/>
<stop offset="0.421875" stop-color="rgb(56.799316%, 39.179993%, 66.513062%)" stop-opacity="1"/>
<stop offset="0.425781" stop-color="rgb(56.536865%, 39.151001%, 66.51001%)" stop-opacity="1"/>
<stop offset="0.429688" stop-color="rgb(56.27594%, 39.123535%, 66.508484%)" stop-opacity="1"/>
<stop offset="0.433594" stop-color="rgb(56.013489%, 39.096069%, 66.505432%)" stop-opacity="1"/>
<stop offset="0.4375" stop-color="rgb(55.752563%, 39.068604%, 66.503906%)" stop-opacity="1"/>
<stop offset="0.441406" stop-color="rgb(55.490112%, 39.041138%, 66.500854%)" stop-opacity="1"/>
<stop offset="0.445312" stop-color="rgb(55.229187%, 39.013672%, 66.499329%)" stop-opacity="1"/>
<stop offset="0.449219" stop-color="rgb(54.966736%, 38.986206%, 66.496277%)" stop-opacity="1"/>
<stop offset="0.453125" stop-color="rgb(54.705811%, 38.95874%, 66.494751%)" stop-opacity="1"/>
<stop offset="0.457031" stop-color="rgb(54.443359%, 38.929749%, 66.493225%)" stop-opacity="1"/>
<stop offset="0.460937" stop-color="rgb(54.182434%, 38.902283%, 66.491699%)" stop-opacity="1"/>
<stop offset="0.464844" stop-color="rgb(53.919983%, 38.874817%, 66.488647%)" stop-opacity="1"/>
<stop offset="0.46875" stop-color="rgb(53.659058%, 38.847351%, 66.487122%)" stop-opacity="1"/>
<stop offset="0.472656" stop-color="rgb(53.396606%, 38.819885%, 66.48407%)" stop-opacity="1"/>
<stop offset="0.476562" stop-color="rgb(53.135681%, 38.792419%, 66.482544%)" stop-opacity="1"/>
<stop offset="0.480469" stop-color="rgb(52.87323%, 38.764954%, 66.479492%)" stop-opacity="1"/>
<stop offset="0.484375" stop-color="rgb(52.612305%, 38.737488%, 66.477966%)" stop-opacity="1"/>
<stop offset="0.488281" stop-color="rgb(52.349854%, 38.708496%, 66.474915%)" stop-opacity="1"/>
<stop offset="0.492188" stop-color="rgb(52.088928%, 38.68103%, 66.473389%)" stop-opacity="1"/>
<stop offset="0.496094" stop-color="rgb(51.826477%, 38.653564%, 66.471863%)" stop-opacity="1"/>
<stop offset="0.5" stop-color="rgb(51.565552%, 38.626099%, 66.470337%)" stop-opacity="1"/>
<stop offset="0.503906" stop-color="rgb(51.303101%, 38.598633%, 66.467285%)" stop-opacity="1"/>
<stop offset="0.507812" stop-color="rgb(51.042175%, 38.571167%, 66.465759%)" stop-opacity="1"/>
<stop offset="0.511719" stop-color="rgb(50.779724%, 38.543701%, 66.462708%)" stop-opacity="1"/>
<stop offset="0.515625" stop-color="rgb(50.518799%, 38.516235%, 66.461182%)" stop-opacity="1"/>
<stop offset="0.519531" stop-color="rgb(50.256348%, 38.487244%, 66.45813%)" stop-opacity="1"/>
<stop offset="0.523438" stop-color="rgb(49.995422%, 38.459778%, 66.456604%)" stop-opacity="1"/>
<stop offset="0.527344" stop-color="rgb(49.732971%, 38.432312%, 66.455078%)" stop-opacity="1"/>
<stop offset="0.53125" stop-color="rgb(49.472046%, 38.404846%, 66.453552%)" stop-opacity="1"/>
<stop offset="0.535156" stop-color="rgb(49.209595%, 38.37738%, 66.4505%)" stop-opacity="1"/>
<stop offset="0.539062" stop-color="rgb(48.947144%, 38.349915%, 66.448975%)" stop-opacity="1"/>
<stop offset="0.542969" stop-color="rgb(48.684692%, 38.322449%, 66.445923%)" stop-opacity="1"/>
<stop offset="0.546875" stop-color="rgb(48.423767%, 38.294983%, 66.444397%)" stop-opacity="1"/>
<stop offset="0.550781" stop-color="rgb(48.161316%, 38.265991%, 66.441345%)" stop-opacity="1"/>
<stop offset="0.554688" stop-color="rgb(47.900391%, 38.238525%, 66.439819%)" stop-opacity="1"/>
<stop offset="0.558594" stop-color="rgb(47.637939%, 38.21106%, 66.436768%)" stop-opacity="1"/>
<stop offset="0.5625" stop-color="rgb(47.377014%, 38.183594%, 66.435242%)" stop-opacity="1"/>
<stop offset="0.566406" stop-color="rgb(47.114563%, 38.156128%, 66.433716%)" stop-opacity="1"/>
<stop offset="0.570313" stop-color="rgb(46.853638%, 38.128662%, 66.43219%)" stop-opacity="1"/>
<stop offset="0.574219" stop-color="rgb(46.591187%, 38.101196%, 66.429138%)" stop-opacity="1"/>
<stop offset="0.578125" stop-color="rgb(46.330261%, 38.07373%, 66.427612%)" stop-opacity="1"/>
<stop offset="0.582031" stop-color="rgb(46.06781%, 38.044739%, 66.424561%)" stop-opacity="1"/>
<stop offset="0.585938" stop-color="rgb(45.806885%, 38.017273%, 66.423035%)" stop-opacity="1"/>
<stop offset="0.589844" stop-color="rgb(45.544434%, 37.989807%, 66.419983%)" stop-opacity="1"/>
<stop offset="0.59375" stop-color="rgb(45.283508%, 37.962341%, 66.418457%)" stop-opacity="1"/>
<stop offset="0.597656" stop-color="rgb(45.021057%, 37.934875%, 66.415405%)" stop-opacity="1"/>
<stop offset="0.601563" stop-color="rgb(44.760132%, 37.90741%, 66.413879%)" stop-opacity="1"/>
<stop offset="0.605469" stop-color="rgb(44.497681%, 37.879944%, 66.412354%)" stop-opacity="1"/>
<stop offset="0.609375" stop-color="rgb(44.236755%, 37.852478%, 66.410828%)" stop-opacity="1"/>
<stop offset="0.613281" stop-color="rgb(43.974304%, 37.823486%, 66.407776%)" stop-opacity="1"/>
<stop offset="0.617188" stop-color="rgb(43.713379%, 37.796021%, 66.40625%)" stop-opacity="1"/>
<stop offset="0.621094" stop-color="rgb(43.450928%, 37.768555%, 66.403198%)" stop-opacity="1"/>
<stop offset="0.625" stop-color="rgb(43.190002%, 37.741089%, 66.401672%)" stop-opacity="1"/>
<stop offset="0.628906" stop-color="rgb(42.927551%, 37.713623%, 66.398621%)" stop-opacity="1"/>
<stop offset="0.632813" stop-color="rgb(42.666626%, 37.686157%, 66.397095%)" stop-opacity="1"/>
<stop offset="0.636719" stop-color="rgb(42.404175%, 37.658691%, 66.394043%)" stop-opacity="1"/>
<stop offset="0.640625" stop-color="rgb(42.14325%, 37.631226%, 66.392517%)" stop-opacity="1"/>
<stop offset="0.644531" stop-color="rgb(41.880798%, 37.602234%, 66.390991%)" stop-opacity="1"/>
<stop offset="0.648438" stop-color="rgb(41.619873%, 37.574768%, 66.389465%)" stop-opacity="1"/>
<stop offset="0.652344" stop-color="rgb(41.357422%, 37.547302%, 66.386414%)" stop-opacity="1"/>
<stop offset="0.65625" stop-color="rgb(41.096497%, 37.519836%, 66.384888%)" stop-opacity="1"/>
<stop offset="0.660156" stop-color="rgb(40.834045%, 37.492371%, 66.381836%)" stop-opacity="1"/>
<stop offset="0.664063" stop-color="rgb(40.57312%, 37.464905%, 66.38031%)" stop-opacity="1"/>
<stop offset="0.667969" stop-color="rgb(40.310669%, 37.437439%, 66.377258%)" stop-opacity="1"/>
<stop offset="0.671875" stop-color="rgb(40.049744%, 37.409973%, 66.375732%)" stop-opacity="1"/>
<stop offset="0.675781" stop-color="rgb(39.787292%, 37.380981%, 66.374207%)" stop-opacity="1"/>
<stop offset="0.679688" stop-color="rgb(39.526367%, 37.353516%, 66.372681%)" stop-opacity="1"/>
<stop offset="0.683594" stop-color="rgb(39.263916%, 37.32605%, 66.369629%)" stop-opacity="1"/>
<stop offset="0.6875" stop-color="rgb(39.002991%, 37.298584%, 66.368103%)" stop-opacity="1"/>
<stop offset="0.691406" stop-color="rgb(38.74054%, 37.271118%, 66.365051%)" stop-opacity="1"/>
<stop offset="0.695312" stop-color="rgb(38.479614%, 37.243652%, 66.363525%)" stop-opacity="1"/>
<stop offset="0.699219" stop-color="rgb(38.217163%, 37.216187%, 66.360474%)" stop-opacity="1"/>
<stop offset="0.703125" stop-color="rgb(37.956238%, 37.188721%, 66.358948%)" stop-opacity="1"/>
<stop offset="0.707031" stop-color="rgb(37.693787%, 37.159729%, 66.355896%)" stop-opacity="1"/>
<stop offset="0.710938" stop-color="rgb(37.432861%, 37.132263%, 66.35437%)" stop-opacity="1"/>
<stop offset="0.714844" stop-color="rgb(37.17041%, 37.104797%, 66.352844%)" stop-opacity="1"/>
<stop offset="0.71875" stop-color="rgb(36.909485%, 37.077332%, 66.351318%)" stop-opacity="1"/>
<stop offset="0.722656" stop-color="rgb(36.647034%, 37.049866%, 66.348267%)" stop-opacity="1"/>
<stop offset="0.726562" stop-color="rgb(36.386108%, 37.0224%, 66.346741%)" stop-opacity="1"/>
<stop offset="0.730469" stop-color="rgb(36.123657%, 36.994934%, 66.343689%)" stop-opacity="1"/>
<stop offset="0.734375" stop-color="rgb(35.862732%, 36.967468%, 66.342163%)" stop-opacity="1"/>
<stop offset="0.738281" stop-color="rgb(35.600281%, 36.938477%, 66.339111%)" stop-opacity="1"/>
<stop offset="0.742188" stop-color="rgb(35.339355%, 36.911011%, 66.337585%)" stop-opacity="1"/>
<stop offset="0.746094" stop-color="rgb(35.076904%, 36.883545%, 66.334534%)" stop-opacity="1"/>
<stop offset="0.75" stop-color="rgb(34.815979%, 36.856079%, 66.333008%)" stop-opacity="1"/>
<stop offset="0.753906" stop-color="rgb(34.553528%, 36.828613%, 66.331482%)" stop-opacity="1"/>
<stop offset="0.757812" stop-color="rgb(34.292603%, 36.801147%, 66.329956%)" stop-opacity="1"/>
<stop offset="0.761719" stop-color="rgb(34.030151%, 36.773682%, 66.326904%)" stop-opacity="1"/>
<stop offset="0.765625" stop-color="rgb(33.769226%, 36.746216%, 66.325378%)" stop-opacity="1"/>
<stop offset="0.769531" stop-color="rgb(33.506775%, 36.717224%, 66.322327%)" stop-opacity="1"/>
<stop offset="0.773438" stop-color="rgb(33.24585%, 36.689758%, 66.320801%)" stop-opacity="1"/>
<stop offset="0.777344" stop-color="rgb(32.983398%, 36.662292%, 66.317749%)" stop-opacity="1"/>
<stop offset="0.78125" stop-color="rgb(32.722473%, 36.634827%, 66.316223%)" stop-opacity="1"/>
<stop offset="0.785156" stop-color="rgb(32.460022%, 36.607361%, 66.313171%)" stop-opacity="1"/>
<stop offset="0.789063" stop-color="rgb(32.199097%, 36.579895%, 66.311646%)" stop-opacity="1"/>
<stop offset="0.792969" stop-color="rgb(31.936646%, 36.552429%, 66.31012%)" stop-opacity="1"/>
<stop offset="0.796875" stop-color="rgb(31.67572%, 36.524963%, 66.308594%)" stop-opacity="1"/>
<stop offset="0.800781" stop-color="rgb(31.413269%, 36.495972%, 66.305542%)" stop-opacity="1"/>
<stop offset="0.804688" stop-color="rgb(31.152344%, 36.468506%, 66.304016%)" stop-opacity="1"/>
<stop offset="0.808594" stop-color="rgb(30.889893%, 36.44104%, 66.300964%)" stop-opacity="1"/>
<stop offset="0.8125" stop-color="rgb(30.628967%, 36.413574%, 66.299438%)" stop-opacity="1"/>
<stop offset="0.816406" stop-color="rgb(30.366516%, 36.386108%, 66.296387%)" stop-opacity="1"/>
<stop offset="0.820313" stop-color="rgb(30.105591%, 36.358643%, 66.294861%)" stop-opacity="1"/>
<stop offset="0.824219" stop-color="rgb(29.84314%, 36.329651%, 66.293335%)" stop-opacity="1"/>
<stop offset="0.828125" stop-color="rgb(29.582214%, 36.302185%, 66.291809%)" stop-opacity="1"/>
<stop offset="0.832031" stop-color="rgb(29.319763%, 36.274719%, 66.288757%)" stop-opacity="1"/>
<stop offset="0.835938" stop-color="rgb(29.058838%, 36.247253%, 66.287231%)" stop-opacity="1"/>
<stop offset="0.839844" stop-color="rgb(28.796387%, 36.219788%, 66.28418%)" stop-opacity="1"/>
<stop offset="0.84375" stop-color="rgb(28.535461%, 36.192322%, 66.282654%)" stop-opacity="1"/>
<stop offset="0.847656" stop-color="rgb(28.27301%, 36.164856%, 66.279602%)" stop-opacity="1"/>
<stop offset="0.851563" stop-color="rgb(28.012085%, 36.13739%, 66.278076%)" stop-opacity="1"/>
<stop offset="0.855469" stop-color="rgb(27.749634%, 36.108398%, 66.275024%)" stop-opacity="1"/>
<stop offset="0.859375" stop-color="rgb(27.488708%, 36.080933%, 66.273499%)" stop-opacity="1"/>
<stop offset="0.875" stop-color="rgb(27.468872%, 36.079407%, 66.273499%)" stop-opacity="1"/>
<stop offset="1" stop-color="rgb(27.450562%, 36.077881%, 66.273499%)" stop-opacity="1"/>
</linearGradient>
</defs>
<g clip-path="url(#clip-0)">
<path fill-rule="nonzero" fill="url(#linear-pattern-0)" d="M 2400 -2400 L -2400 2400 L 2400 7200 L 7200 2400 Z M 2400 -2400 "/>
</g>
<path fill-rule="nonzero" fill="rgb(100%, 100%, 99.21875%)" fill-opacity="1" d="M 636.90625 1432.621094 L 2500.878906 1432.621094 C 2485.558594 1456.628906 2471.351562 1481.261719 2458.269531 1506.449219 L 673.820312 1506.449219 L 673.820312 3664.878906 L 2948.519531 3664.878906 L 2948.519531 2839.539062 C 2972.738281 2849.429688 2997.371094 2858.339844 3022.339844 2866.230469 L 3022.339844 3738.710938 L 599.992188 3738.710938 L 599.992188 1432.621094 L 636.90625 1432.621094 "/>
<path fill-rule="nonzero" fill="rgb(100%, 100%, 99.21875%)" fill-opacity="1" d="M 802.035156 1833.730469 L 2357.460938 1833.730469 C 2354.53125 1858.171875 2352.53125 1882.789062 2351.46875 1907.558594 L 838.945312 1907.558594 L 838.945312 3507.929688 L 2783.390625 3507.929688 L 2783.390625 2752.421875 C 2807.378906 2768.238281 2832.011719 2782.949219 2857.210938 2796.511719 L 2857.210938 3581.75 L 765.121094 3581.75 L 765.121094 1833.730469 L 802.035156 1833.730469 "/>
<path fill-rule="nonzero" fill="rgb(100%, 100%, 99.21875%)" fill-opacity="1" d="M 2232.628906 1797.730469 L 1352.800781 1797.730469 L 1352.800781 1552.410156 L 2269.539062 1552.410156 L 2269.539062 1797.730469 Z M 1426.621094 1723.898438 L 2195.71875 1723.898438 L 2195.71875 1626.238281 L 1426.621094 1626.238281 L 1426.621094 1723.898438 "/>
<path fill-rule="nonzero" fill="rgb(100%, 100%, 99.21875%)" fill-opacity="1" d="M 1167.800781 2117.988281 L 1065.199219 2117.988281 L 1065.199219 2220.589844 L 1167.800781 2220.589844 Z M 1046.738281 2081.070312 L 1204.710938 2081.070312 L 1204.710938 2257.511719 L 1028.28125 2257.511719 L 1028.28125 2081.070312 L 1046.738281 2081.070312 "/>
<path fill-rule="nonzero" fill="rgb(100%, 100%, 99.21875%)" fill-opacity="1" d="M 1515.128906 2117.988281 L 1412.53125 2117.988281 L 1412.53125 2220.589844 L 1515.128906 2220.589844 Z M 1394.070312 2081.070312 L 1552.050781 2081.070312 L 1552.050781 2257.511719 L 1375.609375 2257.511719 L 1375.609375 2081.070312 L 1394.070312 2081.070312 "/>
<path fill-rule="nonzero" fill="rgb(100%, 100%, 99.21875%)" fill-opacity="1" d="M 1862.46875 2117.988281 L 1759.871094 2117.988281 L 1759.871094 2220.589844 L 1862.46875 2220.589844 Z M 1741.410156 2081.070312 L 1899.378906 2081.070312 L 1899.378906 2257.511719 L 1722.949219 2257.511719 L 1722.949219 2081.070312 L 1741.410156 2081.070312 "/>
<path fill-rule="nonzero" fill="rgb(100%, 100%, 99.21875%)" fill-opacity="1" d="M 2209.800781 2117.988281 L 2107.199219 2117.988281 L 2107.199219 2220.589844 L 2209.800781 2220.589844 Z M 2088.75 2081.070312 L 2246.71875 2081.070312 L 2246.71875 2257.511719 L 2070.289062 2257.511719 L 2070.289062 2081.070312 L 2088.75 2081.070312 "/>
<path fill-rule="nonzero" fill="rgb(100%, 100%, 99.21875%)" fill-opacity="1" d="M 1167.800781 2476.949219 L 1065.199219 2476.949219 L 1065.199219 2579.558594 L 1167.800781 2579.558594 Z M 1046.738281 2440.039062 L 1204.710938 2440.039062 L 1204.710938 2616.46875 L 1028.28125 2616.46875 L 1028.28125 2440.039062 L 1046.738281 2440.039062 "/>
<path fill-rule="nonzero" fill="rgb(100%, 100%, 99.21875%)" fill-opacity="1" d="M 1515.128906 2476.949219 L 1412.53125 2476.949219 L 1412.53125 2579.558594 L 1515.128906 2579.558594 Z M 1394.070312 2440.039062 L 1552.050781 2440.039062 L 1552.050781 2616.46875 L 1375.609375 2616.46875 L 1375.609375 2440.039062 L 1394.070312 2440.039062 "/>
<path fill-rule="nonzero" fill="rgb(100%, 100%, 99.21875%)" fill-opacity="1" d="M 1862.46875 2476.949219 L 1759.871094 2476.949219 L 1759.871094 2579.558594 L 1862.46875 2579.558594 Z M 1741.410156 2440.039062 L 1899.378906 2440.039062 L 1899.378906 2616.46875 L 1722.949219 2616.46875 L 1722.949219 2440.039062 L 1741.410156 2440.039062 "/>
<path fill-rule="nonzero" fill="rgb(100%, 100%, 99.21875%)" fill-opacity="1" d="M 2209.800781 2476.949219 L 2107.199219 2476.949219 L 2107.199219 2579.558594 L 2209.800781 2579.558594 Z M 2088.75 2440.039062 L 2246.71875 2440.039062 L 2246.71875 2616.46875 L 2070.289062 2616.46875 L 2070.289062 2440.039062 L 2088.75 2440.039062 "/>
<path fill-rule="nonzero" fill="rgb(100%, 100%, 99.21875%)" fill-opacity="1" d="M 2436.078125 2440.039062 L 2485.140625 2440.039062 C 2492.550781 2452.511719 2500.261719 2464.808594 2508.25 2476.949219 L 2454.539062 2476.949219 L 2454.539062 2579.558594 L 2557.140625 2579.558594 L 2557.140625 2544.679688 C 2568.96875 2559.660156 2581.28125 2574.320312 2594.050781 2588.640625 L 2594.050781 2616.46875 L 2417.621094 2616.46875 L 2417.621094 2440.039062 L 2436.078125 2440.039062 "/>
<path fill-rule="nonzero" fill="rgb(100%, 100%, 99.21875%)" fill-opacity="1" d="M 1167.800781 2835.921875 L 1065.199219 2835.921875 L 1065.199219 2938.519531 L 1167.800781 2938.519531 Z M 1046.738281 2799.011719 L 1204.710938 2799.011719 L 1204.710938 2975.441406 L 1028.28125 2975.441406 L 1028.28125 2799.011719 L 1046.738281 2799.011719 "/>
<path fill-rule="nonzero" fill="rgb(100%, 100%, 99.21875%)" fill-opacity="1" d="M 1515.128906 2835.921875 L 1412.53125 2835.921875 L 1412.53125 2938.519531 L 1515.128906 2938.519531 Z M 1394.070312 2799.011719 L 1552.050781 2799.011719 L 1552.050781 2975.441406 L 1375.609375 2975.441406 L 1375.609375 2799.011719 L 1394.070312 2799.011719 "/>
<path fill-rule="nonzero" fill="rgb(100%, 100%, 99.21875%)" fill-opacity="1" d="M 1862.46875 2835.921875 L 1759.871094 2835.921875 L 1759.871094 2938.519531 L 1862.46875 2938.519531 Z M 1741.410156 2799.011719 L 1899.378906 2799.011719 L 1899.378906 2975.441406 L 1722.949219 2975.441406 L 1722.949219 2799.011719 L 1741.410156 2799.011719 "/>
<path fill-rule="nonzero" fill="rgb(100%, 100%, 99.21875%)" fill-opacity="1" d="M 2209.800781 2835.921875 L 2107.199219 2835.921875 L 2107.199219 2938.519531 L 2209.800781 2938.519531 Z M 2088.75 2799.011719 L 2246.71875 2799.011719 L 2246.71875 2975.441406 L 2070.289062 2975.441406 L 2070.289062 2799.011719 L 2088.75 2799.011719 "/>
<path fill-rule="nonzero" fill="rgb(100%, 100%, 99.21875%)" fill-opacity="1" d="M 2557.140625 2835.921875 L 2454.539062 2835.921875 L 2454.539062 2938.519531 L 2557.140625 2938.519531 Z M 2436.078125 2799.011719 L 2594.050781 2799.011719 L 2594.050781 2975.441406 L 2417.621094 2975.441406 L 2417.621094 2799.011719 L 2436.078125 2799.011719 "/>
<path fill-rule="nonzero" fill="rgb(100%, 100%, 99.21875%)" fill-opacity="1" d="M 1167.800781 3194.890625 L 1065.199219 3194.890625 L 1065.199219 3297.488281 L 1167.800781 3297.488281 Z M 1046.738281 3157.96875 L 1204.710938 3157.96875 L 1204.710938 3334.398438 L 1028.28125 3334.398438 L 1028.28125 3157.96875 L 1046.738281 3157.96875 "/>
<path fill-rule="nonzero" fill="rgb(100%, 100%, 99.21875%)" fill-opacity="1" d="M 1515.128906 3194.890625 L 1412.53125 3194.890625 L 1412.53125 3297.488281 L 1515.128906 3297.488281 Z M 1394.070312 3157.96875 L 1552.050781 3157.96875 L 1552.050781 3334.398438 L 1375.609375 3334.398438 L 1375.609375 3157.96875 L 1394.070312 3157.96875 "/>
<path fill-rule="nonzero" fill="rgb(100%, 100%, 99.21875%)" fill-opacity="1" d="M 1862.46875 3194.890625 L 1759.871094 3194.890625 L 1759.871094 3297.488281 L 1862.46875 3297.488281 Z M 1741.410156 3157.96875 L 1899.378906 3157.96875 L 1899.378906 3334.398438 L 1722.949219 3334.398438 L 1722.949219 3157.96875 L 1741.410156 3157.96875 "/>
<path fill-rule="nonzero" fill="rgb(100%, 100%, 99.21875%)" fill-opacity="1" d="M 2209.800781 3194.890625 L 2107.199219 3194.890625 L 2107.199219 3297.488281 L 2209.800781 3297.488281 Z M 2088.75 3157.96875 L 2246.71875 3157.96875 L 2246.71875 3334.398438 L 2070.289062 3334.398438 L 2070.289062 3157.96875 L 2088.75 3157.96875 "/>
<path fill-rule="nonzero" fill="rgb(100%, 100%, 99.21875%)" fill-opacity="1" d="M 2557.140625 3194.890625 L 2454.539062 3194.890625 L 2454.539062 3297.488281 L 2557.140625 3297.488281 Z M 2436.078125 3157.96875 L 2594.050781 3157.96875 L 2594.050781 3334.398438 L 2417.621094 3334.398438 L 2417.621094 3157.96875 L 2436.078125 3157.96875 "/>
<path fill-rule="nonzero" fill="rgb(100%, 100%, 99.21875%)" fill-opacity="1" d="M 3887.78125 1373.53125 C 3740.480469 1226.230469 3536.980469 1135.121094 3312.199219 1135.121094 C 3087.421875 1135.121094 2883.921875 1226.230469 2736.621094 1373.53125 C 2589.320312 1520.828125 2498.210938 1724.320312 2498.210938 1949.101562 C 2498.210938 2173.878906 2589.320312 2377.378906 2736.621094 2524.679688 C 2883.921875 2671.980469 3087.421875 2763.089844 3312.199219 2763.089844 C 3536.980469 2763.089844 3740.480469 2671.980469 3887.78125 2524.679688 C 4035.078125 2377.378906 4126.191406 2173.878906 4126.191406 1949.101562 C 4126.191406 1724.320312 4035.078125 1520.820312 3887.78125 1373.53125 Z M 3312.199219 1061.289062 C 3557.359375 1061.289062 3779.320312 1160.671875 3939.980469 1321.328125 C 4100.640625 1481.988281 4200.011719 1703.949219 4200.011719 1949.101562 C 4200.011719 2194.261719 4100.640625 2416.21875 3939.980469 2576.878906 C 3779.308594 2737.539062 3557.359375 2836.921875 3312.199219 2836.921875 C 3067.039062 2836.921875 2845.078125 2737.539062 2684.421875 2576.878906 C 2523.761719 2416.21875 2424.378906 2194.261719 2424.378906 1949.101562 C 2424.378906 1703.949219 2523.761719 1481.988281 2684.421875 1321.328125 C 2845.078125 1160.671875 3067.039062 1061.289062 3312.199219 1061.289062 "/>
<path fill-rule="nonzero" fill="rgb(100%, 100%, 99.21875%)" fill-opacity="1" d="M 3359.589844 1901.71875 C 3347.460938 1889.589844 3330.710938 1882.089844 3312.199219 1882.089844 C 3293.691406 1882.089844 3276.929688 1889.589844 3264.808594 1901.71875 C 3252.691406 1913.839844 3245.191406 1930.601562 3245.191406 1949.101562 C 3245.191406 1967.609375 3252.691406 1984.371094 3264.808594 1996.488281 C 3276.929688 2008.621094 3293.691406 2016.109375 3312.199219 2016.109375 C 3330.710938 2016.109375 3347.460938 2008.621094 3359.589844 1996.488281 C 3371.710938 1984.371094 3379.210938 1967.609375 3379.210938 1949.101562 C 3379.210938 1930.601562 3371.710938 1913.839844 3359.589844 1901.71875 Z M 3312.199219 1808.269531 C 3351.089844 1808.269531 3386.300781 1824.03125 3411.78125 1849.519531 C 3437.269531 1875 3453.039062 1910.21875 3453.039062 1949.101562 C 3453.039062 1987.988281 3437.269531 2023.199219 3411.78125 2048.691406 C 3386.300781 2074.179688 3351.089844 2089.941406 3312.199219 2089.941406 C 3273.308594 2089.941406 3238.101562 2074.179688 3212.609375 2048.691406 C 3187.128906 2023.199219 3171.359375 1987.988281 3171.359375 1949.101562 C 3171.359375 1910.21875 3187.128906 1875 3212.609375 1849.519531 C 3238.101562 1824.03125 3273.308594 1808.269531 3312.199219 1808.269531 "/>
<path fill-rule="nonzero" fill="rgb(100%, 100%, 99.21875%)" fill-opacity="1" d="M 3328.628906 1252.429688 C 3332.769531 1248.300781 3335.328125 1242.511719 3335.328125 1236.070312 C 3335.328125 1229.640625 3332.769531 1223.851562 3328.628906 1219.710938 L 3328.558594 1219.710938 C 3324.378906 1215.53125 3318.589844 1212.941406 3312.199219 1212.941406 C 3305.808594 1212.941406 3300.019531 1215.53125 3295.839844 1219.710938 L 3295.769531 1219.710938 C 3291.628906 1223.851562 3289.070312 1229.640625 3289.070312 1236.070312 C 3289.070312 1242.460938 3291.660156 1248.25 3295.839844 1252.429688 C 3300.019531 1256.621094 3305.808594 1259.210938 3312.199219 1259.210938 C 3318.589844 1259.210938 3324.378906 1256.621094 3328.558594 1252.429688 Z M 3372.25 1236.070312 C 3372.25 1252.589844 3365.511719 1267.589844 3354.621094 1278.5 L 3354.660156 1278.53125 C 3343.789062 1289.398438 3328.78125 1296.121094 3312.199219 1296.121094 C 3295.621094 1296.121094 3280.609375 1289.398438 3269.738281 1278.53125 C 3258.871094 1267.660156 3252.148438 1252.648438 3252.148438 1236.070312 C 3252.148438 1219.558594 3258.878906 1204.558594 3269.78125 1193.648438 L 3269.738281 1193.609375 C 3280.609375 1182.75 3295.621094 1176.03125 3312.199219 1176.03125 C 3328.78125 1176.03125 3343.789062 1182.75 3354.660156 1193.609375 L 3354.621094 1193.648438 C 3365.511719 1204.558594 3372.25 1219.558594 3372.25 1236.070312 "/>
<path fill-rule="nonzero" fill="rgb(100%, 100%, 99.21875%)" fill-opacity="1" d="M 3328.628906 2678.5 C 3332.769531 2674.351562 3335.328125 2668.570312 3335.328125 2662.140625 C 3335.328125 2655.699219 3332.769531 2649.910156 3328.628906 2645.769531 L 3328.558594 2645.699219 C 3324.421875 2641.558594 3318.640625 2639 3312.199219 2639 C 3305.761719 2639 3299.980469 2641.558594 3295.839844 2645.699219 L 3295.839844 2645.769531 C 3291.660156 2649.960938 3289.070312 2655.738281 3289.070312 2662.140625 C 3289.070312 2668.570312 3291.628906 2674.351562 3295.769531 2678.5 L 3295.839844 2678.5 C 3300.019531 2682.679688 3305.808594 2685.269531 3312.199219 2685.269531 C 3318.589844 2685.269531 3324.378906 2682.679688 3328.558594 2678.5 Z M 3372.25 2662.140625 C 3372.25 2678.648438 3365.511719 2693.648438 3354.621094 2704.558594 L 3354.660156 2704.589844 C 3343.789062 2715.460938 3328.78125 2722.179688 3312.199219 2722.179688 C 3295.621094 2722.179688 3280.609375 2715.460938 3269.738281 2704.589844 L 3269.78125 2704.558594 C 3258.878906 2693.648438 3252.148438 2678.648438 3252.148438 2662.140625 C 3252.148438 2645.558594 3258.871094 2630.539062 3269.738281 2619.679688 L 3269.78125 2619.710938 C 3280.679688 2608.820312 3295.691406 2602.078125 3312.199219 2602.078125 C 3328.691406 2602.078125 3343.691406 2608.808594 3354.589844 2619.679688 L 3354.660156 2619.75 C 3365.53125 2630.648438 3372.25 2645.640625 3372.25 2662.140625 "/>
<path fill-rule="nonzero" fill="rgb(100%, 100%, 99.21875%)" fill-opacity="1" d="M 3208.28125 1986.019531 C 3228.660156 1986.019531 3245.191406 1969.488281 3245.191406 1949.101562 C 3245.191406 1928.71875 3228.660156 1912.191406 3208.28125 1912.191406 L 2795.550781 1912.191406 C 2775.171875 1912.191406 2758.640625 1928.71875 2758.640625 1949.101562 C 2758.640625 1969.488281 2775.171875 1986.019531 2795.550781 1986.019531 L 3208.28125 1986.019531 "/>
<path fill-rule="nonzero" fill="rgb(100%, 100%, 99.21875%)" fill-opacity="1" d="M 3275.289062 1845.179688 C 3275.289062 1865.558594 3291.820312 1882.089844 3312.199219 1882.089844 C 3332.578125 1882.089844 3349.109375 1865.558594 3349.109375 1845.179688 L 3349.109375 1346.699219 C 3349.109375 1326.320312 3332.578125 1309.789062 3312.199219 1309.789062 C 3291.820312 1309.789062 3275.289062 1326.320312 3275.289062 1346.699219 L 3275.289062 1845.179688 "/>
<path fill-rule="nonzero" fill="rgb(100%, 100%, 99.21875%)" fill-opacity="1" d="M 2615.53125 1932.671875 C 2611.390625 1928.53125 2605.609375 1925.96875 2599.171875 1925.96875 C 2592.730469 1925.96875 2586.949219 1928.53125 2582.808594 1932.671875 L 2582.808594 1932.738281 C 2578.628906 1936.929688 2576.039062 1942.71875 2576.039062 1949.101562 C 2576.039062 1955.488281 2578.628906 1961.28125 2582.808594 1965.460938 L 2582.808594 1965.53125 C 2586.949219 1969.679688 2592.730469 1972.238281 2599.171875 1972.238281 C 2605.558594 1972.238281 2611.351562 1969.648438 2615.53125 1965.460938 C 2619.710938 1961.28125 2622.300781 1955.488281 2622.300781 1949.101562 C 2622.300781 1942.71875 2619.710938 1936.929688 2615.53125 1932.738281 Z M 2599.171875 1889.050781 C 2615.679688 1889.050781 2630.691406 1895.789062 2641.589844 1906.679688 L 2641.628906 1906.648438 C 2652.488281 1917.511719 2659.21875 1932.53125 2659.21875 1949.101562 C 2659.21875 1965.679688 2652.488281 1980.699219 2641.628906 1991.558594 C 2630.761719 2002.429688 2615.75 2009.148438 2599.171875 2009.148438 C 2582.660156 2009.148438 2567.648438 2002.421875 2556.75 1991.53125 L 2556.710938 1991.558594 C 2545.839844 1980.699219 2539.121094 1965.679688 2539.121094 1949.101562 C 2539.121094 1932.53125 2545.839844 1917.511719 2556.710938 1906.648438 L 2556.75 1906.679688 C 2567.648438 1895.789062 2582.660156 1889.050781 2599.171875 1889.050781 "/>
<path fill-rule="nonzero" fill="rgb(100%, 100%, 99.21875%)" fill-opacity="1" d="M 4041.589844 1932.671875 C 4037.449219 1928.53125 4031.671875 1925.96875 4025.230469 1925.96875 C 4018.789062 1925.96875 4013.011719 1928.53125 4008.871094 1932.671875 L 4008.800781 1932.738281 C 4004.660156 1936.878906 4002.101562 1942.671875 4002.101562 1949.101562 C 4002.101562 1955.539062 4004.660156 1961.328125 4008.800781 1965.460938 L 4008.871094 1965.460938 C 4013.050781 1969.648438 4018.839844 1972.238281 4025.230469 1972.238281 C 4031.671875 1972.238281 4037.449219 1969.679688 4041.589844 1965.53125 L 4041.589844 1965.460938 C 4045.769531 1961.28125 4048.359375 1955.488281 4048.359375 1949.101562 C 4048.359375 1942.71875 4045.769531 1936.929688 4041.589844 1932.738281 Z M 4025.230469 1889.050781 C 4041.738281 1889.050781 4056.75 1895.789062 4067.648438 1906.679688 L 4067.691406 1906.648438 C 4078.558594 1917.511719 4085.28125 1932.53125 4085.28125 1949.101562 C 4085.28125 1965.679688 4078.558594 1980.699219 4067.691406 1991.558594 L 4067.648438 1991.53125 C 4056.75 2002.421875 4041.738281 2009.148438 4025.230469 2009.148438 C 4008.648438 2009.148438 3993.640625 2002.429688 3982.769531 1991.558594 L 3982.808594 1991.53125 C 3971.921875 1980.621094 3965.179688 1965.621094 3965.179688 1949.101562 C 3965.179688 1932.609375 3971.898438 1917.621094 3982.769531 1906.71875 L 3982.839844 1906.648438 C 3993.75 1895.769531 4008.738281 1889.050781 4025.230469 1889.050781 "/>
</svg>
